<mxfile host="app.diagrams.net" agent="Mozilla/5.0 (Windows NT 10.0; Win64; x64) AppleWebKit/537.36 (KHTML, like Gecko) Chrome/131.0.0.0 Safari/537.36 Edg/131.0.0.0" version="25.0.3">
  <diagram id="C5RBs43oDa-KdzZeNtuy" name="Page-1">
    <mxGraphModel dx="786" dy="465" grid="1" gridSize="10" guides="1" tooltips="1" connect="1" arrows="1" fold="1" page="1" pageScale="1" pageWidth="827" pageHeight="1169" math="0" shadow="0">
      <root>
        <mxCell id="WIyWlLk6GJQsqaUBKTNV-0" />
        <mxCell id="WIyWlLk6GJQsqaUBKTNV-1" parent="WIyWlLk6GJQsqaUBKTNV-0" />
        <mxCell id="XH4gTBcrjWjqF6Y7GSpi-3" style="edgeStyle=orthogonalEdgeStyle;rounded=0;orthogonalLoop=1;jettySize=auto;html=1;entryX=0.5;entryY=0;entryDx=0;entryDy=0;" edge="1" parent="WIyWlLk6GJQsqaUBKTNV-1" source="XH4gTBcrjWjqF6Y7GSpi-0" target="XH4gTBcrjWjqF6Y7GSpi-1">
          <mxGeometry relative="1" as="geometry" />
        </mxCell>
        <mxCell id="XH4gTBcrjWjqF6Y7GSpi-0" value="START" style="rounded=0;whiteSpace=wrap;html=1;" vertex="1" parent="WIyWlLk6GJQsqaUBKTNV-1">
          <mxGeometry x="354" y="50" width="120" height="60" as="geometry" />
        </mxCell>
        <mxCell id="XH4gTBcrjWjqF6Y7GSpi-4" style="edgeStyle=orthogonalEdgeStyle;rounded=0;orthogonalLoop=1;jettySize=auto;html=1;entryX=0.5;entryY=0;entryDx=0;entryDy=0;" edge="1" parent="WIyWlLk6GJQsqaUBKTNV-1" source="XH4gTBcrjWjqF6Y7GSpi-1" target="XH4gTBcrjWjqF6Y7GSpi-2">
          <mxGeometry relative="1" as="geometry" />
        </mxCell>
        <mxCell id="XH4gTBcrjWjqF6Y7GSpi-1" value="Generate a random word" style="rounded=1;whiteSpace=wrap;html=1;" vertex="1" parent="WIyWlLk6GJQsqaUBKTNV-1">
          <mxGeometry x="354" y="170" width="120" height="60" as="geometry" />
        </mxCell>
        <mxCell id="XH4gTBcrjWjqF6Y7GSpi-8" style="edgeStyle=orthogonalEdgeStyle;rounded=0;orthogonalLoop=1;jettySize=auto;html=1;entryX=0.5;entryY=0;entryDx=0;entryDy=0;" edge="1" parent="WIyWlLk6GJQsqaUBKTNV-1" source="XH4gTBcrjWjqF6Y7GSpi-2" target="XH4gTBcrjWjqF6Y7GSpi-5">
          <mxGeometry relative="1" as="geometry" />
        </mxCell>
        <mxCell id="XH4gTBcrjWjqF6Y7GSpi-2" value="Generate blanks equal to the length of the word generated" style="rounded=1;whiteSpace=wrap;html=1;" vertex="1" parent="WIyWlLk6GJQsqaUBKTNV-1">
          <mxGeometry x="354" y="280" width="120" height="60" as="geometry" />
        </mxCell>
        <mxCell id="XH4gTBcrjWjqF6Y7GSpi-9" style="edgeStyle=orthogonalEdgeStyle;rounded=0;orthogonalLoop=1;jettySize=auto;html=1;entryX=0.5;entryY=0;entryDx=0;entryDy=0;" edge="1" parent="WIyWlLk6GJQsqaUBKTNV-1" source="XH4gTBcrjWjqF6Y7GSpi-5" target="XH4gTBcrjWjqF6Y7GSpi-6">
          <mxGeometry relative="1" as="geometry" />
        </mxCell>
        <mxCell id="XH4gTBcrjWjqF6Y7GSpi-5" value="Make the user guess a letter" style="rounded=1;whiteSpace=wrap;html=1;" vertex="1" parent="WIyWlLk6GJQsqaUBKTNV-1">
          <mxGeometry x="354" y="390" width="120" height="60" as="geometry" />
        </mxCell>
        <mxCell id="XH4gTBcrjWjqF6Y7GSpi-13" style="edgeStyle=orthogonalEdgeStyle;rounded=0;orthogonalLoop=1;jettySize=auto;html=1;entryX=0.5;entryY=0;entryDx=0;entryDy=0;" edge="1" parent="WIyWlLk6GJQsqaUBKTNV-1" source="XH4gTBcrjWjqF6Y7GSpi-6" target="XH4gTBcrjWjqF6Y7GSpi-11">
          <mxGeometry relative="1" as="geometry" />
        </mxCell>
        <mxCell id="XH4gTBcrjWjqF6Y7GSpi-14" style="edgeStyle=orthogonalEdgeStyle;rounded=0;orthogonalLoop=1;jettySize=auto;html=1;entryX=0.5;entryY=0;entryDx=0;entryDy=0;" edge="1" parent="WIyWlLk6GJQsqaUBKTNV-1" source="XH4gTBcrjWjqF6Y7GSpi-6" target="XH4gTBcrjWjqF6Y7GSpi-12">
          <mxGeometry relative="1" as="geometry" />
        </mxCell>
        <mxCell id="XH4gTBcrjWjqF6Y7GSpi-6" value="Correct letter?" style="rhombus;whiteSpace=wrap;html=1;" vertex="1" parent="WIyWlLk6GJQsqaUBKTNV-1">
          <mxGeometry x="364" y="510" width="100" height="100" as="geometry" />
        </mxCell>
        <mxCell id="XH4gTBcrjWjqF6Y7GSpi-18" style="edgeStyle=orthogonalEdgeStyle;rounded=0;orthogonalLoop=1;jettySize=auto;html=1;entryX=0.5;entryY=0;entryDx=0;entryDy=0;" edge="1" parent="WIyWlLk6GJQsqaUBKTNV-1" source="XH4gTBcrjWjqF6Y7GSpi-11" target="XH4gTBcrjWjqF6Y7GSpi-17">
          <mxGeometry relative="1" as="geometry" />
        </mxCell>
        <mxCell id="XH4gTBcrjWjqF6Y7GSpi-11" value="Replace the blank with the guessed letter" style="rounded=1;whiteSpace=wrap;html=1;" vertex="1" parent="WIyWlLk6GJQsqaUBKTNV-1">
          <mxGeometry x="200" y="690" width="120" height="60" as="geometry" />
        </mxCell>
        <mxCell id="XH4gTBcrjWjqF6Y7GSpi-19" style="edgeStyle=orthogonalEdgeStyle;rounded=0;orthogonalLoop=1;jettySize=auto;html=1;" edge="1" parent="WIyWlLk6GJQsqaUBKTNV-1" source="XH4gTBcrjWjqF6Y7GSpi-12">
          <mxGeometry relative="1" as="geometry">
            <mxPoint x="420" y="840" as="targetPoint" />
          </mxGeometry>
        </mxCell>
        <mxCell id="XH4gTBcrjWjqF6Y7GSpi-12" value="Hangman loses a life" style="rounded=1;whiteSpace=wrap;html=1;" vertex="1" parent="WIyWlLk6GJQsqaUBKTNV-1">
          <mxGeometry x="530" y="690" width="120" height="60" as="geometry" />
        </mxCell>
        <mxCell id="XH4gTBcrjWjqF6Y7GSpi-15" value="Yes?" style="text;html=1;align=center;verticalAlign=middle;whiteSpace=wrap;rounded=0;" vertex="1" parent="WIyWlLk6GJQsqaUBKTNV-1">
          <mxGeometry x="280" y="530" width="60" height="30" as="geometry" />
        </mxCell>
        <mxCell id="XH4gTBcrjWjqF6Y7GSpi-16" value="No?" style="text;html=1;align=center;verticalAlign=middle;whiteSpace=wrap;rounded=0;" vertex="1" parent="WIyWlLk6GJQsqaUBKTNV-1">
          <mxGeometry x="510" y="530" width="60" height="30" as="geometry" />
        </mxCell>
        <mxCell id="XH4gTBcrjWjqF6Y7GSpi-22" style="edgeStyle=orthogonalEdgeStyle;rounded=0;orthogonalLoop=1;jettySize=auto;html=1;entryX=0;entryY=0.5;entryDx=0;entryDy=0;" edge="1" parent="WIyWlLk6GJQsqaUBKTNV-1" source="XH4gTBcrjWjqF6Y7GSpi-17" target="XH4gTBcrjWjqF6Y7GSpi-21">
          <mxGeometry relative="1" as="geometry" />
        </mxCell>
        <mxCell id="XH4gTBcrjWjqF6Y7GSpi-23" style="edgeStyle=orthogonalEdgeStyle;rounded=0;orthogonalLoop=1;jettySize=auto;html=1;entryX=1;entryY=0.5;entryDx=0;entryDy=0;" edge="1" parent="WIyWlLk6GJQsqaUBKTNV-1" source="XH4gTBcrjWjqF6Y7GSpi-17" target="XH4gTBcrjWjqF6Y7GSpi-21">
          <mxGeometry relative="1" as="geometry" />
        </mxCell>
        <mxCell id="XH4gTBcrjWjqF6Y7GSpi-17" value="All letters guessed correctly?" style="rhombus;whiteSpace=wrap;html=1;" vertex="1" parent="WIyWlLk6GJQsqaUBKTNV-1">
          <mxGeometry x="374" y="840" width="96" height="90" as="geometry" />
        </mxCell>
        <mxCell id="XH4gTBcrjWjqF6Y7GSpi-21" value="Game Over" style="rounded=0;whiteSpace=wrap;html=1;" vertex="1" parent="WIyWlLk6GJQsqaUBKTNV-1">
          <mxGeometry x="364" y="1010" width="120" height="60" as="geometry" />
        </mxCell>
        <mxCell id="XH4gTBcrjWjqF6Y7GSpi-24" value="Yes" style="text;html=1;align=center;verticalAlign=middle;whiteSpace=wrap;rounded=0;" vertex="1" parent="WIyWlLk6GJQsqaUBKTNV-1">
          <mxGeometry x="280" y="990" width="60" height="30" as="geometry" />
        </mxCell>
        <mxCell id="XH4gTBcrjWjqF6Y7GSpi-25" value="No" style="text;html=1;align=center;verticalAlign=middle;whiteSpace=wrap;rounded=0;" vertex="1" parent="WIyWlLk6GJQsqaUBKTNV-1">
          <mxGeometry x="500" y="990" width="60" height="30" as="geometry" />
        </mxCell>
      </root>
    </mxGraphModel>
  </diagram>
</mxfile>
